<svg xmlns="http://www.w3.org/2000/svg" width="1200" height="750" viewBox="0 0 1200 750" role="img" aria-labelledby="title desc">
  <title id="title">Dataflow Template Toolkit project visual</title>
  <desc id="desc">An MCP server and CLI creating standardized Apache Beam and Dataflow projects for batch and streaming pipelines.</desc>
  <rect width="1200" height="750" fill="#f8fafc"/>
  <rect x="70" y="70" width="1060" height="610" rx="28" fill="#ffffff" stroke="#cbd5e1" stroke-width="2"/>
  <g font-family="Inter, Arial, sans-serif">
    <text x="110" y="145" fill="#0f172a" font-size="54" font-weight="800">Dataflow Template Toolkit</text>
    <text x="112" y="194" fill="#475569" font-size="28">MCP + CLI scaffolding for Apache Beam pipelines</text>
  </g>
  <g fill="none" stroke="#2563eb" stroke-width="5" stroke-linecap="round" stroke-linejoin="round">
    <path d="M235 370 H430"/>
    <path d="M570 370 H765"/>
    <path d="M765 370 L900 285"/>
    <path d="M765 370 L900 455"/>
  </g>
  <g font-family="Inter, Arial, sans-serif" text-anchor="middle">
    <rect x="125" y="285" width="220" height="170" rx="20" fill="#dbeafe" stroke="#60a5fa" stroke-width="2"/>
    <text x="235" y="355" fill="#1e3a8a" font-size="30" font-weight="800">AI Assistant</text>
    <text x="235" y="394" fill="#1e40af" font-size="22">MCP call</text>
    <rect x="430" y="275" width="190" height="190" rx="28" fill="#0f172a"/>
    <text x="525" y="350" fill="#f8fafc" font-size="32" font-weight="800">Template</text>
    <text x="525" y="390" fill="#93c5fd" font-size="24">Server</text>
    <rect x="875" y="215" width="210" height="135" rx="18" fill="#dcfce7" stroke="#86efac" stroke-width="2"/>
    <text x="980" y="276" fill="#14532d" font-size="29" font-weight="800">Batch</text>
    <text x="980" y="313" fill="#166534" font-size="21">Beam project</text>
    <rect x="875" y="390" width="210" height="135" rx="18" fill="#fae8ff" stroke="#e879f9" stroke-width="2"/>
    <text x="980" y="451" fill="#701a75" font-size="29" font-weight="800">Streaming</text>
    <text x="980" y="488" fill="#86198f" font-size="21">Dataflow job</text>
  </g>
  <g fill="#f1f5f9" stroke="#cbd5e1">
    <rect x="155" y="575" width="170" height="48" rx="10"/>
    <rect x="350" y="575" width="170" height="48" rx="10"/>
    <rect x="545" y="575" width="170" height="48" rx="10"/>
    <rect x="740" y="575" width="170" height="48" rx="10"/>
  </g>
  <g fill="#334155" font-family="Inter, Arial, sans-serif" font-size="21" font-weight="700">
    <text x="194" y="606">Python</text>
    <text x="390" y="606">Beam</text>
    <text x="584" y="606">Cloud Run</text>
    <text x="779" y="606">GitHub Actions</text>
  </g>
</svg>
